<svg id="Layer_1" data-name="Layer 1" xmlns="http://www.w3.org/2000/svg" viewBox="0 0 246.75 246.75"><defs><style>.cls-1{fill:#fff;}.cls-2{fill:#005681;}.cls-3{fill:#00405c;}.cls-4{fill:#0dcdaa;}</style></defs><path class="cls-1" d="M3.37,55.87a52.51,52.51,0,0,1,52.5-52.5h135a52.5,52.5,0,0,1,52.5,52.5v135a52.49,52.49,0,0,1-52.5,52.5h-135a52.5,52.5,0,0,1-52.5-52.5Z"/><path class="cls-2" d="M190.2,83V187.63a5.44,5.44,0,0,1-9.07,4.05l-33.59-30.17a9.44,9.44,0,0,0-12.61,0L101.31,191.7a5.45,5.45,0,0,1-9.1-4v-43c19.45,3.39,29.91-3.32,33.63-5.79a38.4,38.4,0,0,0,3.58-2.71c10.93-9,14.94-20.46,16.21-23,7.78-15.84,19.44-44.92,39.42-46.65h0A28.75,28.75,0,0,1,190.2,83Z"/><path class="cls-3" d="M185.06,66.51c-20,1.73-31.64,31.75-39.42,47.58-1.27,2.59-5.28,14-16.21,23a38.4,38.4,0,0,1-3.58,2.71c-3.72,2.46-14.18,8.24-33.63,4.85a36.34,36.34,0,0,0,8.53-.71c.84-.16,1.67-.34,2.5-.57l.34-.09c.84-.22,1.67-.47,2.5-.75a48.81,48.81,0,0,0,5.17-2.06,62.32,62.32,0,0,0,9.67-5.59q1.83-1.31,3.58-2.71c7.68-6.17,11.93-14.35,16.2-23,4.12-8.37,10.08-19.29,17.75-28,.46-.53.92-1,1.39-1.54.24-.26.48-.52.74-.78l.73-.74c.34-.35.69-.69,1.05-1l.87-.82A38.86,38.86,0,0,1,176.36,68l.53-.17a26,26,0,0,1,2.75-.76q.81-.18,1.65-.3a25.6,25.6,0,0,1,3.05-.28h.72Z"/><path class="cls-4" d="M162.89,53.94H139.74c-18.23,0-38-2.49-54.5,6.73-20,11.16-34.33,35.26-26.53,58.23a39.19,39.19,0,0,0,24.77,24.28,33.43,33.43,0,0,0,8.73,1.52h0a36.34,36.34,0,0,0,8.53-.71c.84-.17,1.67-.35,2.5-.57l.34-.09c.84-.23,1.67-.48,2.5-.75a48.81,48.81,0,0,0,5.17-2.06,62.32,62.32,0,0,0,9.67-5.59q1.83-1.31,3.58-2.71c7.68-6.17,11.93-14.35,16.2-23,4.12-8.37,10.08-19.29,17.75-28,.46-.53.92-1,1.39-1.54.24-.26.48-.52.74-.78l.73-.74c.34-.35.69-.69,1.05-1l.87-.82A38.86,38.86,0,0,1,176.36,68l.53-.17a26,26,0,0,1,2.75-.76q.81-.18,1.65-.3a25.6,25.6,0,0,1,3.05-.28h.72A26.52,26.52,0,0,0,162.89,53.94Zm-51.23,51.92a.22.22,0,0,1,0,.08A16.33,16.33,0,0,1,79,105.67a14.39,14.39,0,0,1,.07-1.48,0,0,0,0,1,0,0A16.31,16.31,0,0,1,93.64,89.43h0a15.3,15.3,0,0,1,1.67-.09,16.33,16.33,0,0,1,16.33,16.33Z"/><path class="cls-1" d="M111.66,105.67v.19a.22.22,0,0,1,0,.08A16.33,16.33,0,0,1,79,105.67a14.39,14.39,0,0,1,.07-1.48,0,0,0,0,1,0,0A16.31,16.31,0,0,1,93.64,89.43h0a15.3,15.3,0,0,1,1.67-.09A16.33,16.33,0,0,1,111.66,105.67Z"/></svg>