<svg id="Layer_1" data-name="Layer 1" xmlns="http://www.w3.org/2000/svg" viewBox="0 0 598.84 374.27"><defs><style>.cls-1{fill:#404040;}.cls-2{fill:#005681;}.cls-3{fill:#00405c;}.cls-4{fill:#0dcdaa;}.cls-5{fill:#fff;}.cls-6{fill:none;}</style></defs><rect class="cls-1" x="147.08" y="287.92" width="8.06" height="8.27"/><path class="cls-1" d="M172,273.93h-38.6q-8.34,0-8.34-9v-4.81h-7.35v4.74a19.74,19.74,0,0,0,1.3,7.63,13.86,13.86,0,0,0,3.5,5.06,13.35,13.35,0,0,0,5,2.79,20.53,20.53,0,0,0,5.87.85H180.1V251.09H172Z"/><path class="cls-1" d="M275.49,250.81a15,15,0,0,0-5.58-3.25,22.3,22.3,0,0,0-7-1.06,20.9,20.9,0,0,0-7,1.13,15.45,15.45,0,0,0-5.59,3.36,15.08,15.08,0,0,0-3.67,5.44,19.72,19.72,0,0,0-1.31,7.46,10.74,10.74,0,0,0,.49,3.21,19.58,19.58,0,0,0,1.17,2.94,11.41,11.41,0,0,0,1.49,2.3,5.73,5.73,0,0,0,1.44,1.3v.29H220.32q.21-2.83.21-6.3a46.2,46.2,0,0,0-.78-8.94,17.33,17.33,0,0,0-2.68-6.64,12.06,12.06,0,0,0-5.09-4.14,19.78,19.78,0,0,0-8-1.41,18.68,18.68,0,0,0-8,1.52,13.48,13.48,0,0,0-5.12,4,15.63,15.63,0,0,0-2.72,5.79,28.45,28.45,0,0,0-.82,6.83,18.11,18.11,0,0,0,1.21,6.78,14.94,14.94,0,0,0,3.42,5.23A15.24,15.24,0,0,0,197.2,280a18.79,18.79,0,0,0,6.79,1.17h7.28a17.63,17.63,0,0,1-1.7,4.88,9,9,0,0,1-2.65,3,9.58,9.58,0,0,1-3.71,1.55,25.23,25.23,0,0,1-4.88.43,13.17,13.17,0,0,1-5.44-1.14v7q.78.28,1.77.57a16,16,0,0,0,2.05.35,21.83,21.83,0,0,0,2.68.14,32.44,32.44,0,0,0,8-.88,14.91,14.91,0,0,0,5.9-2.9,15.28,15.28,0,0,0,4-5.2,28.56,28.56,0,0,0,2.33-7.84h43.26a23.33,23.33,0,0,0,7.21-1.06,14.09,14.09,0,0,0,9.12-8.63,20.84,20.84,0,0,0,1.28-7.63,20.47,20.47,0,0,0-1.31-7.64A14.76,14.76,0,0,0,275.49,250.81Zm-63.37,23.12H204c-3.07,0-5.21-.81-6.44-2.41s-1.83-3.89-1.83-6.85a19,19,0,0,1,.42-4,10.33,10.33,0,0,1,1.45-3.54,8.53,8.53,0,0,1,10.64-2.58,6.34,6.34,0,0,1,2.47,2.58,12.47,12.47,0,0,1,1.28,4.24,44.21,44.21,0,0,1,.35,5.87Q212.33,271,212.12,273.93Zm57.64-2.55q-2.36,2.83-6.89,2.83a8.47,8.47,0,0,1-6.89-2.83,11.26,11.26,0,0,1-2.37-7.49,11.58,11.58,0,0,1,2.33-7.53q2.34-2.87,6.93-2.86t6.93,2.86a11.53,11.53,0,0,1,2.33,7.53A11.26,11.26,0,0,1,269.76,271.38Z"/><rect class="cls-1" x="318.29" y="310.55" width="8.06" height="8.27"/><rect class="cls-1" x="330.24" y="310.55" width="8.06" height="8.27"/><rect class="cls-1" x="403.33" y="287.92" width="8.06" height="8.27"/><rect class="cls-1" x="415.28" y="287.92" width="8.06" height="8.27"/><path class="cls-1" d="M438,273.93H424.19a6,6,0,0,1-2.48-.57,8.65,8.65,0,0,1-2.37-1.59,8.18,8.18,0,0,1-1.8-2.51,7.66,7.66,0,0,1-.71-3.32V251.09h-8.06v17.32a6.37,6.37,0,0,1-.49,2.69,4.93,4.93,0,0,1-1.24,1.7,4.32,4.32,0,0,1-1.59.88,5.73,5.73,0,0,1-1.55.25H390.82a6,6,0,0,1-2.47-.57,8.65,8.65,0,0,1-2.37-1.59,8.38,8.38,0,0,1-1.81-2.51,7.65,7.65,0,0,1-.7-3.32V230.66h-8.06v37.75a6.36,6.36,0,0,1-.5,2.69,5,5,0,0,1-1.23,1.7,4.49,4.49,0,0,1-1.59.88,5.86,5.86,0,0,1-1.56.25H343.39c-.71,0-1.58-.05-2.62-.15s-2.09-.23-3.18-.42a26.6,26.6,0,0,1-3.07-.71,10.21,10.21,0,0,1-2.3-.92v7a13.25,13.25,0,0,0,2.19,1.13,16.39,16.39,0,0,0,2.37.78c.78.19,1.51.33,2.19.43a14,14,0,0,0,1.8.14,2.24,2.24,0,0,1,1.31.42,4.38,4.38,0,0,1,1,1,4.78,4.78,0,0,1,.63,1.23A3.57,3.57,0,0,1,344,285a7,7,0,0,1-1.23,4.18,9,9,0,0,1-3.4,2.75,17.32,17.32,0,0,1-5.09,1.52,40.37,40.37,0,0,1-6.32.46,25.52,25.52,0,0,1-8.1-1.17,14.84,14.84,0,0,1-5.94-3.6,15.77,15.77,0,0,1-3.71-6.29,31.21,31.21,0,0,1-1.34-9.3h-7.28A46.12,46.12,0,0,0,303,284.71a21.47,21.47,0,0,0,4.42,8.62,20.31,20.31,0,0,0,8.06,5.55,33.53,33.53,0,0,0,12.33,2,38.15,38.15,0,0,0,9.8-1.13,23.28,23.28,0,0,0,7-3,13.68,13.68,0,0,0,4.28-4.38,10.13,10.13,0,0,0,1.45-5.16,9.29,9.29,0,0,0-.64-3.15,8.07,8.07,0,0,0-1.63-2.79h22.41a14.25,14.25,0,0,0,6.33-1.59,11.42,11.42,0,0,0,5-5,9,9,0,0,0,1.31,2.3,11.32,11.32,0,0,0,2.09,2.12,11.14,11.14,0,0,0,2.61,1.56,7.51,7.51,0,0,0,3,.6h13a14.17,14.17,0,0,0,6.32-1.59,11.45,11.45,0,0,0,5.06-5,9.28,9.28,0,0,0,1.3,2.3,11.64,11.64,0,0,0,2.09,2.12,11,11,0,0,0,2.62,1.56,7.51,7.51,0,0,0,3,.6H446V230.66H438Z"/><path class="cls-1" d="M479.57,258a15.64,15.64,0,0,0-10.11-9.26,24.54,24.54,0,0,0-7.32-1.06H456v7.07h6.15a12.42,12.42,0,0,1,4.95.88,9.24,9.24,0,0,1,3.4,2.44,9.54,9.54,0,0,1,1.94,3.71,17.53,17.53,0,0,1,.6,4.7v7.43H452.88v7.28h28.21V266.72A22.39,22.39,0,0,0,479.57,258Z"/><path class="cls-2" d="M370.7,86.73V198.38A5.8,5.8,0,0,1,361,202.7l-35.83-32.18a10.05,10.05,0,0,0-13.45,0l-35.86,32.2a5.81,5.81,0,0,1-9.7-4.32V152.59c20.74,3.61,31.9-3.55,35.87-6.18a42.24,42.24,0,0,0,3.82-2.89c11.66-9.66,15.93-21.82,17.29-24.58,8.3-16.89,20.73-47.91,42.05-49.76h0A30.71,30.71,0,0,1,370.7,86.73Z"/><path class="cls-3" d="M365.22,69.18c-21.32,1.85-33.75,33.87-42.05,50.76-1.36,2.76-5.63,14.92-17.29,24.58a42.24,42.24,0,0,1-3.82,2.89c-4,2.63-15.13,8.79-35.87,5.18a39.6,39.6,0,0,0,9.1-.76c.89-.17,1.78-.37,2.66-.61l.37-.1c.89-.23,1.78-.5,2.66-.8a53.23,53.23,0,0,0,5.52-2.19,66.46,66.46,0,0,0,10.31-6q1.95-1.38,3.82-2.89c8.19-6.58,12.72-15.3,17.28-24.58,4.39-8.93,10.75-20.58,18.93-29.85.49-.56,1-1.1,1.48-1.64.26-.28.52-.56.79-.83l.78-.79c.37-.37.74-.74,1.12-1.1l.93-.87a41.35,41.35,0,0,1,14-8.8l.56-.19a29.53,29.53,0,0,1,2.93-.81c.58-.12,1.17-.23,1.76-.32a29.25,29.25,0,0,1,3.26-.3h.77Z"/><path class="cls-4" d="M341.57,55.78H316.88c-19.45,0-40.51-2.66-58.14,7.17-21.38,11.91-36.61,37.61-28.3,62.12A41.8,41.8,0,0,0,256.87,151a35.72,35.72,0,0,0,9.31,1.63h0a39.6,39.6,0,0,0,9.1-.76c.89-.18,1.78-.38,2.66-.61l.37-.1c.89-.24,1.78-.51,2.66-.8a53.23,53.23,0,0,0,5.52-2.19,66.46,66.46,0,0,0,10.31-6q1.95-1.38,3.82-2.89c8.19-6.58,12.72-15.3,17.28-24.58,4.39-8.93,10.75-20.58,18.93-29.85.49-.56,1-1.1,1.48-1.64.26-.28.52-.56.79-.83l.78-.79c.37-.37.74-.74,1.12-1.1l.93-.87a41.35,41.35,0,0,1,14-8.8l.56-.19a29.53,29.53,0,0,1,2.93-.81c.58-.12,1.17-.23,1.76-.32a29.25,29.25,0,0,1,3.26-.3h.77A28.29,28.29,0,0,0,341.57,55.78Zm-54.65,55.38a.22.22,0,0,1,0,.08,17.41,17.41,0,0,1-34.82-.29c0-.53,0-1.06.07-1.58a0,0,0,0,1,0,0A17.41,17.41,0,0,1,267.7,93.63h0A17.43,17.43,0,0,1,286.92,111Z"/><path class="cls-5" d="M286.92,111v.21a.22.22,0,0,1,0,.08,17.41,17.41,0,0,1-34.82-.29c0-.53,0-1.06.07-1.58a0,0,0,0,1,0,0A17.41,17.41,0,0,1,267.7,93.63h0A17.43,17.43,0,0,1,286.92,111Z"/><rect class="cls-6" width="598.84" height="374.27"/></svg>